<svg width="20" height="16" viewBox="0 0 20 16" fill="none" xmlns="http://www.w3.org/2000/svg">
<path d="M10 0.241928C4.47343 0.241928 0 3.75865 0 8.10484C0 12.4503 4.47254 15.9677 10 15.9677C11.9417 15.9677 13.8444 15.5194 15.46 14.6925C15.9441 14.4447 16.0497 13.9224 15.6839 13.571L15.2735 13.1768C14.9642 12.8797 14.4195 12.8069 14.0085 13.0142C12.8194 13.6138 11.424 13.9386 10 13.9386C5.90895 13.9386 2.58065 11.3216 2.58065 8.10484C2.58065 4.88808 5.90895 2.27107 10 2.27107C14.0379 2.27107 17.4194 4.09789 17.4194 7.34391C17.4194 8.57363 16.5688 9.87215 15.0738 9.99742C14.3742 9.98302 14.3919 9.58978 14.5304 9.0455L15.4753 5.20567C15.5908 4.73615 15.1334 4.3002 14.5252 4.3002H12.7115C12.5775 4.3002 12.4483 4.33896 12.3484 4.40909C12.2485 4.47922 12.1849 4.57582 12.1698 4.68044L12.1694 4.68336C11.5768 4.11581 10.5385 3.99298 9.75125 3.99298C6.74399 3.99298 4.19355 5.96612 4.19355 8.79506C4.19355 10.8655 5.67681 12.1517 8.06452 12.1517C9.15258 12.1517 10.3778 11.6559 11.0883 10.9363C11.4723 12.0176 12.726 12.0176 13.9396 12.0176C18.331 12.0176 20 9.7471 20 7.34391C20 3.02099 15.5654 0.241928 10 0.241928ZM9.12581 9.89396C8.22867 9.89396 7.67137 9.39863 7.67137 8.60131C7.67137 7.17479 8.91246 6.29542 10.0355 6.29542C10.9344 6.29542 11.471 6.77864 11.471 7.58804C11.471 9.01671 10.1051 9.89396 9.12581 9.89396Z" fill="#610A0B"/>
</svg>
